# xmcd
#
# Track frame offsets:
#	150
#	18335
#	40220
#	48757
#	57260
#	79057
#	88317
#	97425
#
# Disc length: 1337 seconds
#
# Revision: 0
# Processed by: cddbd v1.5.2PL0 Copyright (c) Steve Scherf et al.
# Submitted via: audiograbber 1.83.01
#
DISCID=64053708
DTITLE=Aaron Hall - Don't Be Afraid
DYEAR=1992
DGENRE=R&B
TTITLE0=Don't Be Afraid (7'' Edit)
TTITLE1=Don't Be Afraid (Nasty Man's Groove)
TTITLE2=Don't Be Afraid (Sex You Down Version)
TTITLE3=Don't Be Afraid (Sex You Down Instrumental)
TTITLE4=Don't Be Afraid (Nasty Man's Instrumental)
TTITLE5=Don't Be Afraid (The 125th Gangster Of The Posse Mix)
TTITLE6=Don't Be Afraid (Piano Jam)
TTITLE7=Don't Be Afraid (Vocal Files)
EXTD=
EXTT0=
EXTT1=
EXTT2=
EXTT3=
EXTT4=
EXTT5=
EXTT6=
EXTT7=
PLAYORDER=
